<?xml version="1.0" encoding="UTF-8"?>
<!DOCTYPE svg PUBLIC "-//W3C//DTD SVG 1.1//EN" "http://www.w3.org/Graphics/SVG/1.1/DTD/svg11.dtd">
<!-- Creator: CorelDRAW 2021 (64-Bit) -->
<svg xmlns="http://www.w3.org/2000/svg" xml:space="preserve" width="8.2197mm" height="8.2197mm" version="1.1" style="shape-rendering:geometricPrecision; text-rendering:geometricPrecision; image-rendering:optimizeQuality; fill-rule:evenodd; clip-rule:evenodd"
viewBox="0 0 63.51 63.51"
 xmlns:xlink="http://www.w3.org/1999/xlink"
 xmlns:xodm="http://www.corel.com/coreldraw/odm/2003">
 <defs>
  <style type="text/css">
   <![CDATA[
    .str0 {stroke:#2F318B;stroke-width:1.36;stroke-miterlimit:22.9256}
    .fil0 {fill:#FEFEFE}
    .fil1 {fill:#2F318B;fill-rule:nonzero}
   ]]>
  </style>
 </defs>
 <g id="Layer_x0020_1">
  <metadata id="CorelCorpID_0Corel-Layer"/>
  <g id="_2345089989472">
   <rect class="fil0 str0" x="0.68" y="0.68" width="62.15" height="62.15" rx="6.44" ry="6.44"/>
   <g>
    <path class="fil1" d="M8.94 32.14c0.09,-0.74 0.13,-1.11 0.17,-1.35l0.37 -2.12 1.76 0 -1.09 6.19 -1.49 0 -2 -3.33 -0.21 1.35 -0.35 1.98 -1.77 0 1.09 -6.19 1.49 0 2.02 3.47z"/>
    <polygon class="fil1" points="11.42,34.86 12.51,28.67 14.25,28.67 13.16,34.86 "/>
    <polygon class="fil1" points="19.19,28.67 21.07,28.67 21.06,28.77 15.69,34.86 13.79,34.86 13.8,34.79 "/>
    <path class="fil1" d="M24.49 30.01c-1.13,0 -2.04,0.88 -2.06,2.05 -0.02,0.86 0.51,1.45 1.38,1.45 1.18,0 2.05,-0.89 2.07,-2.08 0.02,-0.87 -0.5,-1.42 -1.39,-1.42zm-0.85 5c-1.79,0 -2.95,-0.97 -2.98,-2.67 -0.04,-2.34 1.71,-3.82 4,-3.82 1.79,0 2.95,0.98 2.98,2.67 0.04,2.38 -1.69,3.82 -4,3.82z"/>
    <path class="fil1" d="M32.6 32.14c0.09,-0.74 0.13,-1.11 0.17,-1.35l0.37 -2.12 1.76 0 -1.09 6.19 -1.49 0 -2 -3.33 -0.21 1.35 -0.35 1.98 -1.77 0 1.09 -6.19 1.49 0 2.02 3.47z"/>
    <polygon class="fil1" points="35.08,34.86 36.17,28.67 37.91,28.67 36.82,34.86 "/>
    <path class="fil1" d="M42.79 31.39l0.43 -2.72 1.76 0 -1.09 6.19 -1.65 0 0.11 -0.78c0.01,-0.1 0.01,-0.2 -0.01,-0.3 -0.23,-0.88 -1.34,-2.55 -1.76,-2.99l-0.38 2.08 -0.34 1.98 -1.77 0 1.09 -6.19 1.81 0c0.66,0.69 1.46,1.93 1.81,2.72z"/>
    <path class="fil1" d="M47.15 33.38l0.92 0c1.34,0 1.84,-1.11 1.84,-2 0,-0.69 -0.36,-1.26 -1.26,-1.26l-0.92 0 -0.57 3.25zm1.75 -4.71c1.9,0 2.76,1.09 2.76,2.51 0,1.88 -1.28,3.68 -3.85,3.68l-2.65 0 1.09 -6.19 2.65 0z"/>
    <path class="fil1" d="M56.01 30.01c-1.13,0 -2.04,0.88 -2.06,2.05 -0.02,0.86 0.51,1.45 1.38,1.45 1.18,0 2.05,-0.89 2.07,-2.08 0.02,-0.87 -0.5,-1.42 -1.39,-1.42zm-0.85 5c-1.79,0 -2.95,-0.97 -2.98,-2.67 -0.04,-2.34 1.71,-3.82 4.01,-3.82 1.79,0 2.95,0.98 2.98,2.67 0.04,2.38 -1.69,3.82 -4.01,3.82z"/>
    <path class="fil1" d="M46.38 37.4c-0.46,3.62 -3.62,5.91 -8.63,5.99 -0.18,0 -0.36,-0.03 -0.54,-0.03 -3.7,-0.07 -7.78,-1.37 -11.49,-3.62 -3.71,-2.26 -6.6,-5.23 -8.14,-8.36 -3.11,-6.3 0.27,-11.34 7.53,-11.45 0.18,-0 0.36,0.13 0.54,0.13 5.25,0.1 11.05,2.58 15.19,6.48l1.13 0c-4.48,-4.46 -10.93,-7.24 -16.75,-7.34 -0.19,-0 -0.38,-0.07 -0.57,-0.07 -0.22,0 -0.43,-0.02 -0.64,-0.01 -0.02,0 -0.03,-0.02 -0.05,-0.01 -0.2,0.01 -0.4,0.02 -0.59,0.04 -0.02,0 -0.05,0 -0.07,0 -0.19,0.02 -0.37,0.04 -0.56,0.06 -0.03,0 -0.06,0.01 -0.08,0.01 -0.18,0.03 -0.36,0.06 -0.53,0.09 -0.03,0 -0.06,0.01 -0.08,0.02 -0.17,0.03 -0.34,0.07 -0.51,0.11 -0.03,0.01 -0.05,0.01 -0.08,0.02 -0.17,0.04 -0.33,0.09 -0.5,0.13 -0.02,0.01 -0.04,0.01 -0.06,0.02 -0.17,0.05 -0.33,0.1 -0.49,0.16 -0.01,0 -0.02,0.01 -0.04,0.01 -0.17,0.06 -0.33,0.12 -0.49,0.19l0 0c-0.16,0.07 -0.31,0.14 -0.46,0.21 -0.01,0.01 -0.02,0.01 -0.03,0.02 -0.14,0.07 -0.28,0.14 -0.42,0.22 -0.02,0.01 -0.03,0.02 -0.05,0.03 -0.13,0.07 -0.26,0.15 -0.39,0.23 -0.02,0.01 -0.04,0.02 -0.06,0.04 -0.12,0.08 -0.24,0.16 -0.36,0.25 -0.02,0.01 -0.04,0.03 -0.05,0.04 -0.12,0.09 -0.23,0.17 -0.34,0.27 -0.02,0.01 -0.03,0.03 -0.05,0.04 -0.11,0.09 -0.22,0.19 -0.32,0.29 -0.01,0.01 -0.02,0.02 -0.04,0.03 -0.1,0.1 -0.21,0.21 -0.3,0.31 -0.01,0.01 -0.01,0.01 -0.02,0.02 -0.1,0.11 -0.2,0.23 -0.29,0.35 0,0 0,0 0,0 -0.09,0.11 -0.17,0.23 -0.25,0.35 -0,0 -0.01,0.01 -0.01,0.01 -0.08,0.12 -0.16,0.24 -0.23,0.37 0,0 0,0 0,0 -0.03,0.05 -0.05,0.1 -0.08,0.15 -2.48,4.3 -0.57,9.16 2.88,12.99 2.41,2.67 5.64,4.75 8.94,6.15 6.32,2.68 13.08,2.95 16.91,-0.11 0.04,-0.03 0.08,-0.06 0.11,-0.09 0,0 0,0 0,0 0,0 0,0 0,0 0.26,-0.21 0.5,-0.43 0.72,-0.66 0,-0 0,-0 0.01,-0.01 0.11,-0.12 0.22,-0.24 0.32,-0.36 0,-0 0.01,-0.01 0.01,-0.01 0.1,-0.12 0.2,-0.18 0.29,-0.31 0.71,-1.01 1.11,-2.25 1.2,-3.36l-1.16 0z"/>
    <path class="fil1" d="M35.79 26.53l2.55 0c-0.66,-0.56 -1.36,-1.13 -2.11,-1.59 -0.9,-0.55 -1.83,-1.09 -2.77,-1.49l-0.29 1.45c0.75,0.32 1.49,0.82 2.21,1.26 0.14,0.08 0.27,0.09 0.41,0.37z"/>
    <path class="fil1" d="M32.56 24.61l0.29 -1.48c-1.9,-0.75 -3.84,-1.19 -5.68,-1.28l0.78 1.73c1.49,0.08 3.06,0.43 4.61,1.03z"/>
    <path class="fil1" d="M27.19 23.46l0.03 0 -0.78 -1.68c-0.06,0 -0.12,0.02 -0.18,0.03 -1.68,0.02 -3.15,0.38 -4.31,1l1.78 1.48c0.94,-0.49 2.12,-0.54 3.46,-0.82z"/>
    <path class="fil1" d="M43.02 38.52c0.25,-0.36 0.47,-0.85 0.64,-1.13l-2.75 0c-0.26,0.28 -0.58,0.6 -0.94,0.87l1.78 1.52c0.5,-0.36 0.93,-0.78 1.27,-1.26z"/>
    <path class="fil1" d="M19.97 24.65c-0.36,0.5 -0.66,1.05 -0.81,1.88l2.57 0c0.09,-0.28 0.19,-0.47 0.3,-0.63 0.29,-0.41 0.66,-0.83 1.08,-1.13l-1.78 -1.48c-0.54,0.37 -1.01,0.85 -1.37,1.37z"/>
    <path class="fil1" d="M30.56 38.41l-0.29 1.48c1.92,0.74 3.86,1.16 5.7,1.24l-0.86 -1.73c-1.47,-0.07 -3.02,-0.4 -4.56,-0.99z"/>
    <path class="fil1" d="M25.39 37.4c0.44,0.28 0.89,0.54 1.36,0.83 0.94,0.57 1.92,1.03 2.9,1.45l0.29 -1.43c-0.61,-0.26 -1.22,-0.56 -1.81,-0.84l-2.73 0z"/>
    <path class="fil1" d="M35.86 39.4l0.86 1.73c0.01,0 0.02,0 0.03,0 1.73,-0.03 3.23,-0.38 4.41,-1.04l-1.78 -1.52c-0.95,0.52 -2.14,0.8 -3.52,0.83z"/>
   </g>
  </g>
 </g>
</svg>
